<svg
   xmlns:dc="http://purl.org/dc/elements/1.1/"
   xmlns:cc="http://creativecommons.org/ns#"
   xmlns:rdf="http://www.w3.org/1999/02/22-rdf-syntax-ns#"
   xmlns:svg="http://www.w3.org/2000/svg"
   xmlns="http://www.w3.org/2000/svg"
   version="1.1"
   viewBox="0 0 641.98149 467.39738"
   height="10vh"
   class="reindeer">
  <defs
     id="defs4" />
  <g
     transform="translate(-59.96013,-581.73975)"
     id="layer1">
    <g
       transform="translate(3.0304576,175.76654)"
       id="g4251">
      <path
         style="fill:none;fill-rule:evenodd;stroke:#ffffff;stroke-width:5px;stroke-linecap:butt;stroke-linejoin:miter;stroke-opacity:0.5"
         d="m 80,873.07649 c 22.85714,-31.42857 21.42857,-32.85714 21.42857,-32.85714 0,0 37.85714,-40 84.28572,-43.57143 C 232.14286,793.07649 290,747.3622 300,741.64792"
         id="path4155" />
      <path
         style="fill:none;fill-rule:evenodd;stroke:#ffffff;stroke-width:5px;stroke-linecap:butt;stroke-linejoin:miter;stroke-opacity:0.5"
         d="m 299.28571,741.64792 c 27.14286,5 53.57143,11.42857 84.28572,10 C 414.28571,750.21935 495,750.21935 520,745.93363 c 30,10.71429 27.14286,10 40,15.71429 12.85714,5.71428 11.42857,13.57143 6.42857,22.85714 -5,9.28572 -3.57143,2.85714 -13.57143,17.85714 -21.42857,-4.28571 -24.28571,-5 -24.28571,-5 0,0 -12.14286,12.85715 -13.57143,17.14286 -1.42857,4.28572 -7.14286,14.28572 19.28571,10 26.42858,-4.28571 27.85715,-7.14286 35.71429,-15 -2.14286,13.57143 -4.28571,10.71429 8.57143,11.42857 12.85714,0.71429 24.28571,-6.42857 40,-18.57143 10,-22.14285 17.85714,-42.14285 17.85714,-42.14285 0,0 11.42857,-29.28572 -18.57143,-30 -54.28571,-11.42857 -53.57143,-11.42857 -53.57143,-11.42857 12.85715,-20 8.57143,-62.14286 7.85715,-66.42858 -0.71429,-4.28571 30,-50.71428 34.28571,-55.71428"
         id="path4157" />
      <path
         style="fill:none;fill-rule:evenodd;stroke:#ffffff;stroke-width:5px;stroke-linecap:butt;stroke-linejoin:miter;stroke-opacity:0.5"
         d="m 605.98292,596.83918 c 20,7.85715 56.15994,19.80874 58.30279,21.9516 2.14286,2.14285 10,-2.85715 10,-2.85715 0,0 11.42858,1.42857 13.57143,-1.42857 2.14286,-2.85714 17.85715,-8.57143 6.42858,-25 -10.71429,-8.57143 -28.57143,-25 -35.00001,-32.14286 -6.42857,-7.14285 -5,-14.28571 -33.57142,-31.42857 1.42857,-10.71428 -3.57143,-15.71428 27.85714,-30 C 685,481.64792 660.71429,459.50506 660,459.50506 c -0.71429,0 -7.85714,3.57143 -7.85714,9.28572 0,5.71428 -0.71429,12.85714 -0.71429,12.85714 0,0 -24.28571,16.42857 -32.14286,17.85714 -10,0.71429 -19.28571,2.85714 -31.42857,-10.71428 -12.14285,-13.57143 -13.57143,-33.57143 -4.28571,-36.42858 7.85714,-7.14285 17.14286,-9.28571 32.85714,-12.85714 6.42857,-5 13.57143,-8.57143 5.71429,-23.57143 -6.42857,-1.42857 -19.28572,2.85715 -27.14286,12.14286"
         id="path4159" />
      <path
         style="fill:none;fill-rule:evenodd;stroke:#ffffff;stroke-width:5px;stroke-linecap:butt;stroke-linejoin:miter;stroke-opacity:0.5"
         d="m 595.10612,428.08793 c -6.9448,4.16688 -11.49049,8.5863 -10.73287,-5.17703 1.6415,-2.39911 6.31345,-13.76333 -5.05076,-16.28871 -11.36422,-2.52538 -13.00572,27.02158 -11.99557,27.02158 1.01016,0 -41.79506,-11.74302 -41.28998,-0.50508 0.50508,11.23795 14.01587,13.8896 33.58757,15.5311 -0.12627,4.79822 -0.75761,26.5165 -0.75761,26.5165 0.25253,2.77792 0.3788,20.32932 11.36421,25.12755 10.98541,4.79822 5.05077,16.03617 -0.50507,18.05647 -5.55584,2.02031 -5.17704,3.283 -17.93021,4.29315 -4.79823,-0.3788 -6.31345,-0.3788 -7.32361,-0.25254 -2.39911,0.25254 -16.28871,7.07107 7.07107,19.82425 7.44988,-0.37881 14.64721,-0.25254 14.64721,-0.25254 0,0 16.79379,-5.3033 18.94036,-7.07107 2.14658,-1.76776 2.27285,7.57615 2.27285,7.57615 -5.26085,3.44592 -18.29657,13.80307 -26.86799,25.41021 -8.57143,11.60714 -55.35715,52.67857 -63.03572,55.17857 -7.67857,2.5 -23.21428,16.42857 -65,16.25 -11.07143,0.17857 -185.71429,-1.25 -185.71429,-1.25 0,0 -52.14285,4.10714 -65.53571,20.35714 -7.14286,5.89286 -12.32143,8.92857 -13.92857,20.89286 -1.60714,11.96429 21.42857,6.25 24.10714,-5 2.67857,-11.25 22.85714,-17.14286 24.28572,-15.71429 15,0.35715 15.35714,0.35715 15.35714,0.35715 l -15.35714,46.25 c -2.14286,5.17857 -11.07143,28.92857 -21.25,27.14285 -6.25,3.39286 -32.5,9.64286 -38.39286,9.64286 -5.89286,0 -9.10714,0.35714 -9.10714,0.35714 l -69.285718,38.03572 c 0,0 -18.392858,6.96428 -19.642858,19.46428 -1.25,12.5 -0.178571,15 -0.178571,15 0,0 2.321429,16.25 10.892857,1.42858 8.571429,-14.82143 18.75,-22.14286 18.75,-22.14286 0,0 28.92857,-19.46429 55.71429,-24.10714 26.78571,-4.64286 11.25,6.42857 6.60714,10.35714 -4.64286,3.92857 -48.75,39.82143 -51.428573,40.17857 -18.214285,14.10714 -18.035714,11.60714 -21.964285,19.64286 -3.928572,8.03571 -2.5,23.21428 -2.5,23.21428 0,0 -2.142858,8.92857 6.071428,9.28572"
         id="path4161" />
      <path
         style="fill:none;fill-rule:evenodd;stroke:#ffffff;stroke-width:5px;stroke-linecap:butt;stroke-linejoin:miter;stroke-opacity:0.5"
         d="m 602.5,791.1122 6.96429,-13.57142 c 0,0 7.5,-18.39286 5.35714,-21.78572 -2.14286,-3.39286 -5.53571,-8.57143 -22.32143,-10.53571 -16.78571,-1.96429 -21.78571,-2.14286 -21.78571,-2.14286 l 4.64285,4.64286 c 0,0 36.42858,5 8.21429,43.21428 z"
         id="path4163" />
    </g>
  </g>
</svg>
